<svg xmlns="http://www.w3.org/2000/svg" xmlns:xlink="http://www.w3.org/1999/xlink" width="500" zoomAndPan="magnify"
    viewBox="0 0 375 374.999991" height="500" preserveAspectRatio="xMidYMid meet" version="1.0">
    <defs>
        <clipPath id="8b98c6d3d2">
            <path d="M 3 18.28125 L 372 18.28125 L 372 356.53125 L 3 356.53125 Z M 3 18.28125 " clip-rule="nonzero" />
        </clipPath>
        <clipPath id="cc9aae4990">
            <path
                d="M 107.417969 271.964844 L 265.386719 271.964844 L 265.386719 348.53125 L 107.417969 348.53125 Z M 107.417969 271.964844 "
                clip-rule="nonzero" />
        </clipPath>
        <clipPath id="311b6607cb">
            <path
                d="M 87.617188 271.964844 L 113.113281 271.964844 L 113.113281 337.5 L 87.617188 337.5 Z M 87.617188 271.964844 "
                clip-rule="nonzero" />
        </clipPath>
        <clipPath id="b5727b5a92">
            <path
                d="M 69.453125 271.964844 L 94.21875 271.964844 L 94.21875 321.367188 L 69.453125 321.367188 Z M 69.453125 271.964844 "
                clip-rule="nonzero" />
        </clipPath>
        <clipPath id="86afbcabb7">
            <path
                d="M 53.769531 271.964844 L 78.535156 271.964844 L 78.535156 296.664062 L 53.769531 296.664062 Z M 53.769531 271.964844 "
                clip-rule="nonzero" />
        </clipPath>
        <clipPath id="193349b281">
            <path
                d="M 262.785156 271.964844 L 288.285156 271.964844 L 288.285156 337.5 L 262.785156 337.5 Z M 262.785156 271.964844 "
                clip-rule="nonzero" />
        </clipPath>
        <clipPath id="d9c82a913c">
            <path
                d="M 278.886719 271.964844 L 303.648438 271.964844 L 303.648438 321.367188 L 278.886719 321.367188 Z M 278.886719 271.964844 "
                clip-rule="nonzero" />
        </clipPath>
        <clipPath id="af1fe60b8a">
            <path
                d="M 294.351562 271.964844 L 319 271.964844 L 319 296.664062 L 294.351562 296.664062 Z M 294.351562 271.964844 "
                clip-rule="nonzero" />
        </clipPath>
        <clipPath id="b694dd15b7">
            <path
                d="M 53.769531 187.5 L 326.433594 187.5 L 326.433594 284.316406 L 53.769531 284.316406 Z M 53.769531 187.5 "
                clip-rule="nonzero" />
        </clipPath>
        <clipPath id="4b1ea28351">
            <path d="M 37.5 187.5 L 62.996094 187.5 L 62.996094 264.375 L 37.5 264.375 Z M 37.5 187.5 "
                clip-rule="nonzero" />
        </clipPath>
        <clipPath id="7bc5997f0d">
            <path d="M 312.003906 187.5 L 337.5 187.5 L 337.5 264.375 L 312.003906 264.375 Z M 312.003906 187.5 "
                clip-rule="nonzero" />
        </clipPath>
        <clipPath id="8ad70472ab">
            <path d="M 21.457031 187.5 L 50.25 187.5 L 50.25 236.902344 L 21.457031 236.902344 Z M 21.457031 187.5 "
                clip-rule="nonzero" />
        </clipPath>
        <clipPath id="3198ed5d08">
            <path
                d="M 323.105469 187.5 L 351.894531 187.5 L 351.894531 240.390625 L 323.105469 240.390625 Z M 323.105469 187.5 "
                clip-rule="nonzero" />
        </clipPath>
        <clipPath id="d5c8098a7b">
            <path
                d="M 11.089844 151.441406 L 48.519531 151.441406 L 48.519531 212.199219 L 11.089844 212.199219 Z M 11.089844 151.441406 "
                clip-rule="nonzero" />
        </clipPath>
        <clipPath id="887f3a3f2f">
            <path
                d="M 342.84375 163.792969 L 367.605469 163.792969 L 367.605469 212.199219 L 342.84375 212.199219 Z M 342.84375 163.792969 "
                clip-rule="nonzero" />
        </clipPath>
        <clipPath id="a6fa2caafd">
            <path
                d="M 35.851562 115.386719 L 337.5 115.386719 L 337.5 212.199219 L 35.851562 212.199219 Z M 35.851562 115.386719 "
                clip-rule="nonzero" />
        </clipPath>
        <clipPath id="bdd01e23c5">
            <path
                d="M 324.75 137.070312 L 350.25 137.070312 L 350.25 213.945312 L 324.75 213.945312 Z M 324.75 137.070312 "
                clip-rule="nonzero" />
        </clipPath>
        <clipPath id="8010a15c82">
            <path
                d="M 330.460938 151.441406 L 355.222656 151.441406 L 355.222656 176.144531 L 330.460938 176.144531 Z M 330.460938 151.441406 "
                clip-rule="nonzero" />
        </clipPath>
        <clipPath id="7d438c7f0e">
            <path
                d="M 25.484375 139.09375 L 50.25 139.09375 L 50.25 163.792969 L 25.484375 163.792969 Z M 25.484375 139.09375 "
                clip-rule="nonzero" />
        </clipPath>
    </defs>
    <g clip-path="url(#8b98c6d3d2)">
        <path  
            d="M 241.054688 34.332031 C 260.839844 34.332031 284.960938 48.109375 294.789062 64.949219 L 348.671875 156.808594 C 358.5 173.648438 358.5 201.207031 348.671875 218.050781 L 294.960938 309.90625 C 285.132812 326.746094 260.839844 340.523438 241.226562 340.523438 L 133.761719 340.523438 C 113.953125 340.523438 89.832031 326.746094 80.027344 309.90625 L 26.292969 218.050781 C 16.484375 201.207031 16.484375 173.648438 26.292969 156.808594 L 79.851562 64.949219 C 89.660156 48.109375 113.953125 34.332031 133.585938 34.332031 Z M 241.054688 18.492188 L 133.585938 18.492188 C 108.359375 18.492188 78.746094 35.394531 66.15625 56.972656 L 12.59375 148.835938 C -0.0195312 170.472656 -0.0195312 204.378906 12.59375 226.023438 L 66.351562 317.902344 C 78.917969 339.460938 108.53125 356.363281 133.761719 356.363281 L 241.226562 356.363281 C 266.457031 356.363281 296.070312 339.460938 308.636719 317.882812 L 362.371094 226.042969 C 374.984375 204.378906 374.984375 170.476562 362.371094 148.835938 L 308.4375 56.9375 C 295.898438 35.394531 266.285156 18.492188 241.054688 18.492188 Z M 241.054688 18.492188 "
            fill-opacity="1" fill-rule="nonzero" />
    </g>
    <g clip-path="url(#cc9aae4990)">
        <path  
            d="M 107.417969 271.964844 L 265.621094 271.964844 L 265.621094 348.722656 L 107.417969 348.722656 Z M 107.417969 271.964844 "
            fill-opacity="1" fill-rule="nonzero" />
    </g>
    <g clip-path="url(#311b6607cb)">
        <path  
            d="M 87.617188 271.964844 L 113.398438 271.964844 L 113.398438 337.589844 L 87.617188 337.589844 Z M 87.617188 271.964844 "
            fill-opacity="1" fill-rule="nonzero" />
    </g>
    <g clip-path="url(#b5727b5a92)">
        <path  
            d="M 69.453125 271.964844 L 94.0625 271.964844 L 94.0625 321.183594 L 69.453125 321.183594 Z M 69.453125 271.964844 "
            fill-opacity="1" fill-rule="nonzero" />
    </g>
    <g clip-path="url(#86afbcabb7)">
        <path  
            d="M 53.769531 271.964844 L 78.378906 271.964844 L 78.378906 296.574219 L 53.769531 296.574219 Z M 53.769531 271.964844 "
            fill-opacity="1" fill-rule="nonzero" />
    </g>
    <g clip-path="url(#193349b281)">
        <path  
            d="M 262.785156 271.964844 L 288.566406 271.964844 L 288.566406 337.589844 L 262.785156 337.589844 Z M 262.785156 271.964844 "
            fill-opacity="1" fill-rule="nonzero" />
    </g>
    <g clip-path="url(#d9c82a913c)">
        <path  
            d="M 278.886719 271.964844 L 303.496094 271.964844 L 303.496094 321.183594 L 278.886719 321.183594 Z M 278.886719 271.964844 "
            fill-opacity="1" fill-rule="nonzero" />
    </g>
    <g clip-path="url(#af1fe60b8a)">
        <path  
            d="M 294.351562 271.964844 L 318.960938 271.964844 L 318.960938 296.574219 L 294.351562 296.574219 Z M 294.351562 271.964844 "
            fill-opacity="1" fill-rule="nonzero" />
    </g>
    <g clip-path="url(#b694dd15b7)">
        <path  
            d="M 53.769531 187.5 L 326.230469 187.5 L 326.230469 284.179688 L 53.769531 284.179688 Z M 53.769531 187.5 "
            fill-opacity="1" fill-rule="nonzero" />
    </g>
    <g clip-path="url(#4b1ea28351)">
        <path   d="M 37.5 187.5 L 63.28125 187.5 L 63.28125 264.257812 L 37.5 264.257812 Z M 37.5 187.5 "
            fill-opacity="1" fill-rule="nonzero" />
    </g>
    <g clip-path="url(#7bc5997f0d)">
        <path  
            d="M 312.003906 187.5 L 337.785156 187.5 L 337.785156 264.257812 L 312.003906 264.257812 Z M 312.003906 187.5 "
            fill-opacity="1" fill-rule="nonzero" />
    </g>
    <g clip-path="url(#8ad70472ab)">
        <path  
            d="M 21.457031 187.5 L 50.167969 187.5 L 50.167969 236.71875 L 21.457031 236.71875 Z M 21.457031 187.5 "
            fill-opacity="1" fill-rule="nonzero" />
    </g>
    <g clip-path="url(#3198ed5d08)">
        <path  
            d="M 323.105469 187.5 L 351.816406 187.5 L 351.816406 240.234375 L 323.105469 240.234375 Z M 323.105469 187.5 "
            fill-opacity="1" fill-rule="nonzero" />
    </g>
    <g clip-path="url(#d5c8098a7b)">
        <path  
            d="M 11.089844 151.441406 L 48.589844 151.441406 L 48.589844 212.378906 L 11.089844 212.378906 Z M 11.089844 151.441406 "
            fill-opacity="1" fill-rule="nonzero" />
    </g>
    <g clip-path="url(#887f3a3f2f)">
        <path  
            d="M 342.84375 163.792969 L 367.453125 163.792969 L 367.453125 212.425781 L 342.84375 212.425781 Z M 342.84375 163.792969 "
            fill-opacity="1" fill-rule="nonzero" />
    </g>
    <g clip-path="url(#a6fa2caafd)">
        <path  
            d="M 35.851562 115.386719 L 337.609375 115.386719 L 337.609375 212.066406 L 35.851562 212.066406 Z M 35.851562 115.386719 "
            fill-opacity="1" fill-rule="nonzero" />
    </g>
    <g clip-path="url(#bdd01e23c5)">
        <path  
            d="M 324.75 137.070312 L 350.53125 137.070312 L 350.53125 213.828125 L 324.75 213.828125 Z M 324.75 137.070312 "
            fill-opacity="1" fill-rule="nonzero" />
    </g>
    <g clip-path="url(#8010a15c82)">
        <path  
            d="M 330.460938 151.441406 L 355.070312 151.441406 L 355.070312 176.050781 L 330.460938 176.050781 Z M 330.460938 151.441406 "
            fill-opacity="1" fill-rule="nonzero" />
    </g>
    <g clip-path="url(#7d438c7f0e)">
        <path  
            d="M 25.484375 139.09375 L 50.09375 139.09375 L 50.09375 163.703125 L 25.484375 163.703125 Z M 25.484375 139.09375 "
            fill-opacity="1" fill-rule="nonzero" />
    </g>
</svg>