<svg xmlns="http://www.w3.org/2000/svg" xmlns:xlink="http://www.w3.org/1999/xlink" width="500" zoomAndPan="magnify"
    viewBox="0 0 375 374.999991" height="500" preserveAspectRatio="xMidYMid meet" version="1.0">
    <defs>
        <clipPath id="a83fb775b4">
            <path d="M 3 18.28125 L 372 18.28125 L 372 356.53125 L 3 356.53125 Z M 3 18.28125 " clip-rule="nonzero" />
        </clipPath>
        <clipPath id="8b644325e7">
            <path
                d="M 107.417969 271.964844 L 265.386719 271.964844 L 265.386719 348.53125 L 107.417969 348.53125 Z M 107.417969 271.964844 "
                clip-rule="nonzero" />
        </clipPath>
        <clipPath id="5259c59add">
            <path
                d="M 87.617188 271.964844 L 113.113281 271.964844 L 113.113281 337.5 L 87.617188 337.5 Z M 87.617188 271.964844 "
                clip-rule="nonzero" />
        </clipPath>
        <clipPath id="61db9d0cd7">
            <path
                d="M 69.453125 271.964844 L 94.21875 271.964844 L 94.21875 321.367188 L 69.453125 321.367188 Z M 69.453125 271.964844 "
                clip-rule="nonzero" />
        </clipPath>
        <clipPath id="ba41e526a1">
            <path
                d="M 53.769531 271.964844 L 78.535156 271.964844 L 78.535156 296.664062 L 53.769531 296.664062 Z M 53.769531 271.964844 "
                clip-rule="nonzero" />
        </clipPath>
        <clipPath id="6107afe6c4">
            <path
                d="M 262.785156 271.964844 L 288.285156 271.964844 L 288.285156 337.5 L 262.785156 337.5 Z M 262.785156 271.964844 "
                clip-rule="nonzero" />
        </clipPath>
        <clipPath id="af77310b5e">
            <path
                d="M 278.886719 271.964844 L 303.648438 271.964844 L 303.648438 321.367188 L 278.886719 321.367188 Z M 278.886719 271.964844 "
                clip-rule="nonzero" />
        </clipPath>
        <clipPath id="aa46e00158">
            <path
                d="M 294.351562 271.964844 L 319 271.964844 L 319 296.664062 L 294.351562 296.664062 Z M 294.351562 271.964844 "
                clip-rule="nonzero" />
        </clipPath>
    </defs>
    <g clip-path="url(#a83fb775b4)">
        <path
            d="M 241.054688 34.332031 C 260.839844 34.332031 284.960938 48.109375 294.789062 64.949219 L 348.671875 156.808594 C 358.5 173.648438 358.5 201.207031 348.671875 218.050781 L 294.960938 309.90625 C 285.132812 326.746094 260.839844 340.523438 241.226562 340.523438 L 133.761719 340.523438 C 113.953125 340.523438 89.832031 326.746094 80.027344 309.90625 L 26.292969 218.050781 C 16.484375 201.207031 16.484375 173.648438 26.292969 156.808594 L 79.851562 64.949219 C 89.660156 48.109375 113.953125 34.332031 133.585938 34.332031 Z M 241.054688 18.492188 L 133.585938 18.492188 C 108.359375 18.492188 78.746094 35.394531 66.15625 56.972656 L 12.59375 148.835938 C -0.0195312 170.472656 -0.0195312 204.378906 12.59375 226.023438 L 66.351562 317.902344 C 78.917969 339.460938 108.53125 356.363281 133.761719 356.363281 L 241.226562 356.363281 C 266.457031 356.363281 296.070312 339.460938 308.636719 317.882812 L 362.371094 226.042969 C 374.984375 204.378906 374.984375 170.476562 362.371094 148.835938 L 308.4375 56.9375 C 295.898438 35.394531 266.285156 18.492188 241.054688 18.492188 Z M 241.054688 18.492188 "
            fill-opacity="1" fill-rule="nonzero" />
    </g>
    <g clip-path="url(#8b644325e7)">
        <path
            d="M 107.417969 271.964844 L 265.621094 271.964844 L 265.621094 348.722656 L 107.417969 348.722656 Z M 107.417969 271.964844 "
            fill-opacity="1" fill-rule="nonzero" />
    </g>
    <g clip-path="url(#5259c59add)">
        <path
            d="M 87.617188 271.964844 L 113.398438 271.964844 L 113.398438 337.589844 L 87.617188 337.589844 Z M 87.617188 271.964844 "
            fill-opacity="1" fill-rule="nonzero" />
    </g>
    <g clip-path="url(#61db9d0cd7)">
        <path
            d="M 69.453125 271.964844 L 94.0625 271.964844 L 94.0625 321.183594 L 69.453125 321.183594 Z M 69.453125 271.964844 "
            fill-opacity="1" fill-rule="nonzero" />
    </g>
    <g clip-path="url(#ba41e526a1)">
        <path
            d="M 53.769531 271.964844 L 78.378906 271.964844 L 78.378906 296.574219 L 53.769531 296.574219 Z M 53.769531 271.964844 "
            fill-opacity="1" fill-rule="nonzero" />
    </g>
    <g clip-path="url(#6107afe6c4)">
        <path
            d="M 262.785156 271.964844 L 288.566406 271.964844 L 288.566406 337.589844 L 262.785156 337.589844 Z M 262.785156 271.964844 "
            fill-opacity="1" fill-rule="nonzero" />
    </g>
    <g clip-path="url(#af77310b5e)">
        <path
            d="M 278.886719 271.964844 L 303.496094 271.964844 L 303.496094 321.183594 L 278.886719 321.183594 Z M 278.886719 271.964844 "
            fill-opacity="1" fill-rule="nonzero" />
    </g>
    <g clip-path="url(#aa46e00158)">
        <path
            d="M 294.351562 271.964844 L 318.960938 271.964844 L 318.960938 296.574219 L 294.351562 296.574219 Z M 294.351562 271.964844 "
            fill-opacity="1" fill-rule="nonzero" />
    </g>
</svg>