<svg xmlns="http://www.w3.org/2000/svg" xmlns:xlink="http://www.w3.org/1999/xlink" width="500" zoomAndPan="magnify"
    viewBox="0 0 375 374.999991" height="500" preserveAspectRatio="xMidYMid meet" version="1.0">
    <defs>
        <clipPath id="e1d2d867b4">
            <path d="M 3 18.28125 L 372 18.28125 L 372 356.53125 L 3 356.53125 Z M 3 18.28125 " clip-rule="nonzero" />
        </clipPath>
        <clipPath id="9ef28658a6">
            <path
                d="M 107.417969 271.964844 L 265.386719 271.964844 L 265.386719 348.53125 L 107.417969 348.53125 Z M 107.417969 271.964844 "
                clip-rule="nonzero" />
        </clipPath>
        <clipPath id="3d19b742d0">
            <path
                d="M 87.617188 271.964844 L 113.113281 271.964844 L 113.113281 337.5 L 87.617188 337.5 Z M 87.617188 271.964844 "
                clip-rule="nonzero" />
        </clipPath>
        <clipPath id="aad6527528">
            <path
                d="M 69.453125 271.964844 L 94.21875 271.964844 L 94.21875 321.367188 L 69.453125 321.367188 Z M 69.453125 271.964844 "
                clip-rule="nonzero" />
        </clipPath>
        <clipPath id="d8a44c4520">
            <path
                d="M 53.769531 271.964844 L 78.535156 271.964844 L 78.535156 296.664062 L 53.769531 296.664062 Z M 53.769531 271.964844 "
                clip-rule="nonzero" />
        </clipPath>
        <clipPath id="863b86e760">
            <path
                d="M 262.785156 271.964844 L 288.285156 271.964844 L 288.285156 337.5 L 262.785156 337.5 Z M 262.785156 271.964844 "
                clip-rule="nonzero" />
        </clipPath>
        <clipPath id="9c93a12bf9">
            <path
                d="M 278.886719 271.964844 L 303.648438 271.964844 L 303.648438 321.367188 L 278.886719 321.367188 Z M 278.886719 271.964844 "
                clip-rule="nonzero" />
        </clipPath>
        <clipPath id="31998324ef">
            <path
                d="M 294.351562 271.964844 L 319 271.964844 L 319 296.664062 L 294.351562 296.664062 Z M 294.351562 271.964844 "
                clip-rule="nonzero" />
        </clipPath>
        <clipPath id="ce2c03c9a0">
            <path
                d="M 53.769531 187.5 L 326.433594 187.5 L 326.433594 284.316406 L 53.769531 284.316406 Z M 53.769531 187.5 "
                clip-rule="nonzero" />
        </clipPath>
        <clipPath id="ab2992f221">
            <path d="M 37.5 187.5 L 62.996094 187.5 L 62.996094 264.375 L 37.5 264.375 Z M 37.5 187.5 "
                clip-rule="nonzero" />
        </clipPath>
        <clipPath id="ad953f121e">
            <path d="M 312.003906 187.5 L 337.5 187.5 L 337.5 264.375 L 312.003906 264.375 Z M 312.003906 187.5 "
                clip-rule="nonzero" />
        </clipPath>
        <clipPath id="639d1ce4cf">
            <path d="M 21.457031 187.5 L 50.25 187.5 L 50.25 236.902344 L 21.457031 236.902344 Z M 21.457031 187.5 "
                clip-rule="nonzero" />
        </clipPath>
        <clipPath id="aa45b4a376">
            <path
                d="M 323.105469 187.5 L 351.894531 187.5 L 351.894531 240.390625 L 323.105469 240.390625 Z M 323.105469 187.5 "
                clip-rule="nonzero" />
        </clipPath>
        <clipPath id="1a2d4d472a">
            <path
                d="M 11.089844 187.5 L 35.851562 187.5 L 35.851562 212.199219 L 11.089844 212.199219 Z M 11.089844 187.5 "
                clip-rule="nonzero" />
        </clipPath>
        <clipPath id="863290bfda">
            <path
                d="M 342.84375 187.5 L 367.605469 187.5 L 367.605469 212.199219 L 342.84375 212.199219 Z M 342.84375 187.5 "
                clip-rule="nonzero" />
        </clipPath>
    </defs>
    <g clip-path="url(#e1d2d867b4)">
        <path
            d="M 241.054688 34.332031 C 260.839844 34.332031 284.960938 48.109375 294.789062 64.949219 L 348.671875 156.808594 C 358.5 173.648438 358.5 201.207031 348.671875 218.050781 L 294.960938 309.90625 C 285.132812 326.746094 260.839844 340.523438 241.226562 340.523438 L 133.761719 340.523438 C 113.953125 340.523438 89.832031 326.746094 80.027344 309.90625 L 26.292969 218.050781 C 16.484375 201.207031 16.484375 173.648438 26.292969 156.808594 L 79.851562 64.949219 C 89.660156 48.109375 113.953125 34.332031 133.585938 34.332031 Z M 241.054688 18.492188 L 133.585938 18.492188 C 108.359375 18.492188 78.746094 35.394531 66.15625 56.972656 L 12.59375 148.835938 C -0.0195312 170.472656 -0.0195312 204.378906 12.59375 226.023438 L 66.351562 317.902344 C 78.917969 339.460938 108.53125 356.363281 133.761719 356.363281 L 241.226562 356.363281 C 266.457031 356.363281 296.070312 339.460938 308.636719 317.882812 L 362.371094 226.042969 C 374.984375 204.378906 374.984375 170.476562 362.371094 148.835938 L 308.4375 56.9375 C 295.898438 35.394531 266.285156 18.492188 241.054688 18.492188 Z M 241.054688 18.492188 "
            fill-opacity="1" fill-rule="nonzero" />
    </g>
    <g clip-path="url(#9ef28658a6)">
        <path
            d="M 107.417969 271.964844 L 265.621094 271.964844 L 265.621094 348.722656 L 107.417969 348.722656 Z M 107.417969 271.964844 "
            fill-opacity="1" fill-rule="nonzero" />
    </g>
    <g clip-path="url(#3d19b742d0)">
        <path
            d="M 87.617188 271.964844 L 113.398438 271.964844 L 113.398438 337.589844 L 87.617188 337.589844 Z M 87.617188 271.964844 "
            fill-opacity="1" fill-rule="nonzero" />
    </g>
    <g clip-path="url(#aad6527528)">
        <path
            d="M 69.453125 271.964844 L 94.0625 271.964844 L 94.0625 321.183594 L 69.453125 321.183594 Z M 69.453125 271.964844 "
            fill-opacity="1" fill-rule="nonzero" />
    </g>
    <g clip-path="url(#d8a44c4520)">
        <path
            d="M 53.769531 271.964844 L 78.378906 271.964844 L 78.378906 296.574219 L 53.769531 296.574219 Z M 53.769531 271.964844 "
            fill-opacity="1" fill-rule="nonzero" />
    </g>
    <g clip-path="url(#863b86e760)">
        <path
            d="M 262.785156 271.964844 L 288.566406 271.964844 L 288.566406 337.589844 L 262.785156 337.589844 Z M 262.785156 271.964844 "
            fill-opacity="1" fill-rule="nonzero" />
    </g>
    <g clip-path="url(#9c93a12bf9)">
        <path
            d="M 278.886719 271.964844 L 303.496094 271.964844 L 303.496094 321.183594 L 278.886719 321.183594 Z M 278.886719 271.964844 "
            fill-opacity="1" fill-rule="nonzero" />
    </g>
    <g clip-path="url(#31998324ef)">
        <path
            d="M 294.351562 271.964844 L 318.960938 271.964844 L 318.960938 296.574219 L 294.351562 296.574219 Z M 294.351562 271.964844 "
            fill-opacity="1" fill-rule="nonzero" />
    </g>
    <g clip-path="url(#ce2c03c9a0)">
        <path
            d="M 53.769531 187.5 L 326.230469 187.5 L 326.230469 284.179688 L 53.769531 284.179688 Z M 53.769531 187.5 "
            fill-opacity="1" fill-rule="nonzero" />
    </g>
    <g clip-path="url(#ab2992f221)">
        <path d="M 37.5 187.5 L 63.28125 187.5 L 63.28125 264.257812 L 37.5 264.257812 Z M 37.5 187.5 " fill-opacity="1"
            fill-rule="nonzero" />
    </g>
    <g clip-path="url(#ad953f121e)">
        <path
            d="M 312.003906 187.5 L 337.785156 187.5 L 337.785156 264.257812 L 312.003906 264.257812 Z M 312.003906 187.5 "
            fill-opacity="1" fill-rule="nonzero" />
    </g>
    <g clip-path="url(#639d1ce4cf)">
        <path d="M 21.457031 187.5 L 50.167969 187.5 L 50.167969 236.71875 L 21.457031 236.71875 Z M 21.457031 187.5 "
            fill-opacity="1" fill-rule="nonzero" />
    </g>
    <g clip-path="url(#aa45b4a376)">
        <path
            d="M 323.105469 187.5 L 351.816406 187.5 L 351.816406 240.234375 L 323.105469 240.234375 Z M 323.105469 187.5 "
            fill-opacity="1" fill-rule="nonzero" />
    </g>
    <g clip-path="url(#1a2d4d472a)">
        <path d="M 11.089844 187.5 L 35.699219 187.5 L 35.699219 212.109375 L 11.089844 212.109375 Z M 11.089844 187.5 "
            fill-opacity="1" fill-rule="nonzero" />
    </g>
    <g clip-path="url(#863290bfda)">
        <path
            d="M 342.84375 187.5 L 367.453125 187.5 L 367.453125 212.109375 L 342.84375 212.109375 Z M 342.84375 187.5 "
            fill-opacity="1" fill-rule="nonzero" />
    </g>
</svg>