<svg xmlns="http://www.w3.org/2000/svg" xmlns:xlink="http://www.w3.org/1999/xlink" width="500" zoomAndPan="magnify"
    viewBox="0 0 375 374.999991" height="500" preserveAspectRatio="xMidYMid meet" version="1.0">
    <defs>
        <clipPath id="a8ddcfb914">
            <path d="M 3 18.28125 L 372 18.28125 L 372 356.53125 L 3 356.53125 Z M 3 18.28125 " clip-rule="nonzero" />
        </clipPath>
        <clipPath id="f35a3d5eac">
            <path
                d="M 107.417969 271.964844 L 265.386719 271.964844 L 265.386719 348.53125 L 107.417969 348.53125 Z M 107.417969 271.964844 "
                clip-rule="nonzero" />
        </clipPath>
        <clipPath id="d6285b185d">
            <path
                d="M 87.617188 271.964844 L 113.113281 271.964844 L 113.113281 337.5 L 87.617188 337.5 Z M 87.617188 271.964844 "
                clip-rule="nonzero" />
        </clipPath>
        <clipPath id="47997afd3b">
            <path
                d="M 69.453125 271.964844 L 94.21875 271.964844 L 94.21875 321.367188 L 69.453125 321.367188 Z M 69.453125 271.964844 "
                clip-rule="nonzero" />
        </clipPath>
        <clipPath id="b73ab5371a">
            <path
                d="M 53.769531 271.964844 L 78.535156 271.964844 L 78.535156 296.664062 L 53.769531 296.664062 Z M 53.769531 271.964844 "
                clip-rule="nonzero" />
        </clipPath>
        <clipPath id="d06239cb6f">
            <path
                d="M 262.785156 271.964844 L 288.285156 271.964844 L 288.285156 337.5 L 262.785156 337.5 Z M 262.785156 271.964844 "
                clip-rule="nonzero" />
        </clipPath>
        <clipPath id="5070f969b8">
            <path
                d="M 278.886719 271.964844 L 303.648438 271.964844 L 303.648438 321.367188 L 278.886719 321.367188 Z M 278.886719 271.964844 "
                clip-rule="nonzero" />
        </clipPath>
        <clipPath id="126e05f6ce">
            <path
                d="M 294.351562 271.964844 L 319 271.964844 L 319 296.664062 L 294.351562 296.664062 Z M 294.351562 271.964844 "
                clip-rule="nonzero" />
        </clipPath>
        <clipPath id="6ab507b644">
            <path
                d="M 53.769531 187.5 L 326.433594 187.5 L 326.433594 284.316406 L 53.769531 284.316406 Z M 53.769531 187.5 "
                clip-rule="nonzero" />
        </clipPath>
        <clipPath id="59a7909954">
            <path d="M 37.5 187.5 L 62.996094 187.5 L 62.996094 264.375 L 37.5 264.375 Z M 37.5 187.5 "
                clip-rule="nonzero" />
        </clipPath>
        <clipPath id="d17a5f64c9">
            <path d="M 312.003906 187.5 L 337.5 187.5 L 337.5 264.375 L 312.003906 264.375 Z M 312.003906 187.5 "
                clip-rule="nonzero" />
        </clipPath>
        <clipPath id="49964fbf9c">
            <path d="M 21.457031 187.5 L 50.25 187.5 L 50.25 236.902344 L 21.457031 236.902344 Z M 21.457031 187.5 "
                clip-rule="nonzero" />
        </clipPath>
        <clipPath id="47ca29b2c1">
            <path
                d="M 323.105469 187.5 L 351.894531 187.5 L 351.894531 240.390625 L 323.105469 240.390625 Z M 323.105469 187.5 "
                clip-rule="nonzero" />
        </clipPath>
        <clipPath id="27b4e13c8b">
            <path
                d="M 11.089844 151.441406 L 81.835938 151.441406 L 81.835938 212.199219 L 11.089844 212.199219 Z M 11.089844 151.441406 "
                clip-rule="nonzero" />
        </clipPath>
        <clipPath id="4624050dc8">
            <path
                d="M 342.84375 163.792969 L 367.605469 163.792969 L 367.605469 212.199219 L 342.84375 212.199219 Z M 342.84375 163.792969 "
                clip-rule="nonzero" />
        </clipPath>
        <clipPath id="2eb56531b7">
            <path
                d="M 69.453125 59.183594 L 303.648438 59.183594 L 303.648438 212.199219 L 69.453125 212.199219 Z M 69.453125 59.183594 "
                clip-rule="nonzero" />
        </clipPath>
        <clipPath id="df7662a325">
            <path
                d="M 294.351562 137.070312 L 350.25 137.070312 L 350.25 213.945312 L 294.351562 213.945312 Z M 294.351562 137.070312 "
                clip-rule="nonzero" />
        </clipPath>
        <clipPath id="b6f2c12a42">
            <path
                d="M 330.460938 151.441406 L 355.222656 151.441406 L 355.222656 176.144531 L 330.460938 176.144531 Z M 330.460938 151.441406 "
                clip-rule="nonzero" />
        </clipPath>
        <clipPath id="99b855d152">
            <path
                d="M 25.484375 139.09375 L 78.535156 139.09375 L 78.535156 163.792969 L 25.484375 163.792969 Z M 25.484375 139.09375 "
                clip-rule="nonzero" />
        </clipPath>
        <clipPath id="57a18181ea">
            <path
                d="M 53.769531 78.492188 L 99.511719 78.492188 L 99.511719 160.394531 L 53.769531 160.394531 Z M 53.769531 78.492188 "
                clip-rule="nonzero" />
        </clipPath>
        <clipPath id="2aafd74b57">
            <path d="M 14 90 L 93 90 L 93 184 L 14 184 Z M 14 90 " clip-rule="nonzero" />
        </clipPath>
        <clipPath id="8bf6b1842b">
            <path
                d="M 51.710938 90.214844 L 93.078125 110.984375 L 56.265625 184.292969 L 14.898438 163.519531 Z M 51.710938 90.214844 "
                clip-rule="nonzero" />
        </clipPath>
        <clipPath id="351f9bce03">
            <path
                d="M 51.710938 90.214844 L 92.585938 110.738281 L 55.832031 183.933594 L 14.957031 163.40625 Z M 51.710938 90.214844 "
                clip-rule="nonzero" />
        </clipPath>
        <clipPath id="e17a18c390">
            <path d="M 256 72 L 347 72 L 347 174 L 256 174 Z M 256 72 " clip-rule="nonzero" />
        </clipPath>
        <clipPath id="851e656263">
            <path
                d="M 256.832031 100.507812 L 305.5625 72.40625 L 347.417969 144.992188 L 298.6875 173.09375 Z M 256.832031 100.507812 "
                clip-rule="nonzero" />
        </clipPath>
        <clipPath id="bc04225f57">
            <path
                d="M 256.832031 100.507812 L 305.257812 72.582031 L 347.0625 145.082031 L 298.640625 173.007812 Z M 256.832031 100.507812 "
                clip-rule="nonzero" />
        </clipPath>
    </defs>
    <g clip-path="url(#a8ddcfb914)">
        <path  
            d="M 241.054688 34.332031 C 260.839844 34.332031 284.960938 48.109375 294.789062 64.949219 L 348.671875 156.808594 C 358.5 173.648438 358.5 201.207031 348.671875 218.050781 L 294.960938 309.90625 C 285.132812 326.746094 260.839844 340.523438 241.226562 340.523438 L 133.761719 340.523438 C 113.953125 340.523438 89.832031 326.746094 80.027344 309.90625 L 26.292969 218.050781 C 16.484375 201.207031 16.484375 173.648438 26.292969 156.808594 L 79.851562 64.949219 C 89.660156 48.109375 113.953125 34.332031 133.585938 34.332031 Z M 241.054688 18.492188 L 133.585938 18.492188 C 108.359375 18.492188 78.746094 35.394531 66.15625 56.972656 L 12.59375 148.835938 C -0.0195312 170.472656 -0.0195312 204.378906 12.59375 226.023438 L 66.351562 317.902344 C 78.917969 339.460938 108.53125 356.363281 133.761719 356.363281 L 241.226562 356.363281 C 266.457031 356.363281 296.070312 339.460938 308.636719 317.882812 L 362.371094 226.042969 C 374.984375 204.378906 374.984375 170.476562 362.371094 148.835938 L 308.4375 56.9375 C 295.898438 35.394531 266.285156 18.492188 241.054688 18.492188 Z M 241.054688 18.492188 "
            fill-opacity="1" fill-rule="nonzero" />
    </g>
    <g clip-path="url(#f35a3d5eac)">
        <path  
            d="M 107.417969 271.964844 L 265.621094 271.964844 L 265.621094 348.722656 L 107.417969 348.722656 Z M 107.417969 271.964844 "
            fill-opacity="1" fill-rule="nonzero" />
    </g>
    <g clip-path="url(#d6285b185d)">
        <path  
            d="M 87.617188 271.964844 L 113.398438 271.964844 L 113.398438 337.589844 L 87.617188 337.589844 Z M 87.617188 271.964844 "
            fill-opacity="1" fill-rule="nonzero" />
    </g>
    <g clip-path="url(#47997afd3b)">
        <path  
            d="M 69.453125 271.964844 L 94.0625 271.964844 L 94.0625 321.183594 L 69.453125 321.183594 Z M 69.453125 271.964844 "
            fill-opacity="1" fill-rule="nonzero" />
    </g>
    <g clip-path="url(#b73ab5371a)">
        <path  
            d="M 53.769531 271.964844 L 78.378906 271.964844 L 78.378906 296.574219 L 53.769531 296.574219 Z M 53.769531 271.964844 "
            fill-opacity="1" fill-rule="nonzero" />
    </g>
    <g clip-path="url(#d06239cb6f)">
        <path  
            d="M 262.785156 271.964844 L 288.566406 271.964844 L 288.566406 337.589844 L 262.785156 337.589844 Z M 262.785156 271.964844 "
            fill-opacity="1" fill-rule="nonzero" />
    </g>
    <g clip-path="url(#5070f969b8)">
        <path  
            d="M 278.886719 271.964844 L 303.496094 271.964844 L 303.496094 321.183594 L 278.886719 321.183594 Z M 278.886719 271.964844 "
            fill-opacity="1" fill-rule="nonzero" />
    </g>
    <g clip-path="url(#126e05f6ce)">
        <path  
            d="M 294.351562 271.964844 L 318.960938 271.964844 L 318.960938 296.574219 L 294.351562 296.574219 Z M 294.351562 271.964844 "
            fill-opacity="1" fill-rule="nonzero" />
    </g>
    <g clip-path="url(#6ab507b644)">
        <path  
            d="M 53.769531 187.5 L 326.230469 187.5 L 326.230469 284.179688 L 53.769531 284.179688 Z M 53.769531 187.5 "
            fill-opacity="1" fill-rule="nonzero" />
    </g>
    <g clip-path="url(#59a7909954)">
        <path   d="M 37.5 187.5 L 63.28125 187.5 L 63.28125 264.257812 L 37.5 264.257812 Z M 37.5 187.5 "
            fill-opacity="1" fill-rule="nonzero" />
    </g>
    <g clip-path="url(#d17a5f64c9)">
        <path  
            d="M 312.003906 187.5 L 337.785156 187.5 L 337.785156 264.257812 L 312.003906 264.257812 Z M 312.003906 187.5 "
            fill-opacity="1" fill-rule="nonzero" />
    </g>
    <g clip-path="url(#49964fbf9c)">
        <path  
            d="M 21.457031 187.5 L 50.167969 187.5 L 50.167969 236.71875 L 21.457031 236.71875 Z M 21.457031 187.5 "
            fill-opacity="1" fill-rule="nonzero" />
    </g>
    <g clip-path="url(#47ca29b2c1)">
        <path  
            d="M 323.105469 187.5 L 351.816406 187.5 L 351.816406 240.234375 L 323.105469 240.234375 Z M 323.105469 187.5 "
            fill-opacity="1" fill-rule="nonzero" />
    </g>
    <g clip-path="url(#27b4e13c8b)">
        <path  
            d="M 11.089844 151.441406 L 81.988281 151.441406 L 81.988281 212.378906 L 11.089844 212.378906 Z M 11.089844 151.441406 "
            fill-opacity="1" fill-rule="nonzero" />
    </g>
    <g clip-path="url(#4624050dc8)">
        <path  
            d="M 342.84375 163.792969 L 367.453125 163.792969 L 367.453125 212.425781 L 342.84375 212.425781 Z M 342.84375 163.792969 "
            fill-opacity="1" fill-rule="nonzero" />
    </g>
    <g clip-path="url(#2eb56531b7)">
        <path  
            d="M 69.453125 59.183594 L 303.828125 59.183594 L 303.828125 212.113281 L 69.453125 212.113281 Z M 69.453125 59.183594 "
            fill-opacity="1" fill-rule="nonzero" />
    </g>
    <g clip-path="url(#df7662a325)">
        <path  
            d="M 294.351562 137.070312 L 350.015625 137.070312 L 350.015625 213.828125 L 294.351562 213.828125 Z M 294.351562 137.070312 "
            fill-opacity="1" fill-rule="nonzero" />
    </g>
    <g clip-path="url(#b6f2c12a42)">
        <path  
            d="M 330.460938 151.441406 L 355.070312 151.441406 L 355.070312 176.050781 L 330.460938 176.050781 Z M 330.460938 151.441406 "
            fill-opacity="1" fill-rule="nonzero" />
    </g>
    <g clip-path="url(#99b855d152)">
        <path  
            d="M 25.484375 139.09375 L 78.804688 139.09375 L 78.804688 163.703125 L 25.484375 163.703125 Z M 25.484375 139.09375 "
            fill-opacity="1" fill-rule="nonzero" />
    </g>
    <g clip-path="url(#57a18181ea)">
        <path  
            d="M 53.769531 78.492188 L 99.472656 78.492188 L 99.472656 160.523438 L 53.769531 160.523438 Z M 53.769531 78.492188 "
            fill-opacity="1" fill-rule="nonzero" />
    </g>
    <g clip-path="url(#2aafd74b57)">
        <g clip-path="url(#8bf6b1842b)">
            <g clip-path="url(#351f9bce03)">
                <path  
                    d="M 51.710938 90.214844 L 92.554688 110.722656 L 55.738281 184.03125 L 14.898438 163.519531 Z M 51.710938 90.214844 "
                    fill-opacity="1" fill-rule="nonzero" />
            </g>
        </g>
    </g>
    <g clip-path="url(#e17a18c390)">
        <g clip-path="url(#851e656263)">
            <g clip-path="url(#bc04225f57)">
                <path  
                    d="M 256.832031 100.507812 L 305.054688 72.699219 L 346.910156 145.285156 L 298.6875 173.09375 Z M 256.832031 100.507812 "
                    fill-opacity="1" fill-rule="nonzero" />
            </g>
        </g>
    </g>
</svg>