<svg xmlns="http://www.w3.org/2000/svg" xmlns:xlink="http://www.w3.org/1999/xlink" width="500" zoomAndPan="magnify"
    viewBox="0 0 375 374.999991" height="500" preserveAspectRatio="xMidYMid meet" version="1.0">
    <defs>
        <clipPath id="72b62ed4ab">
            <path d="M 3 18.28125 L 372 18.28125 L 372 356.53125 L 3 356.53125 Z M 3 18.28125 " clip-rule="nonzero" />
        </clipPath>
        <clipPath id="086570fe4c">
            <path
                d="M 107.417969 271.964844 L 265.386719 271.964844 L 265.386719 348.53125 L 107.417969 348.53125 Z M 107.417969 271.964844 "
                clip-rule="nonzero" />
        </clipPath>
        <clipPath id="7e2f73b1a1">
            <path
                d="M 87.617188 271.964844 L 113.113281 271.964844 L 113.113281 337.5 L 87.617188 337.5 Z M 87.617188 271.964844 "
                clip-rule="nonzero" />
        </clipPath>
        <clipPath id="29d61cb18b">
            <path
                d="M 69.453125 271.964844 L 94.21875 271.964844 L 94.21875 321.367188 L 69.453125 321.367188 Z M 69.453125 271.964844 "
                clip-rule="nonzero" />
        </clipPath>
        <clipPath id="0baa16954f">
            <path
                d="M 53.769531 271.964844 L 78.535156 271.964844 L 78.535156 296.664062 L 53.769531 296.664062 Z M 53.769531 271.964844 "
                clip-rule="nonzero" />
        </clipPath>
        <clipPath id="98b2f93765">
            <path
                d="M 262.785156 271.964844 L 288.285156 271.964844 L 288.285156 337.5 L 262.785156 337.5 Z M 262.785156 271.964844 "
                clip-rule="nonzero" />
        </clipPath>
        <clipPath id="e21979e839">
            <path
                d="M 278.886719 271.964844 L 303.648438 271.964844 L 303.648438 321.367188 L 278.886719 321.367188 Z M 278.886719 271.964844 "
                clip-rule="nonzero" />
        </clipPath>
        <clipPath id="72cbadfbc3">
            <path
                d="M 294.351562 271.964844 L 319 271.964844 L 319 296.664062 L 294.351562 296.664062 Z M 294.351562 271.964844 "
                clip-rule="nonzero" />
        </clipPath>
        <clipPath id="e9836af450">
            <path
                d="M 53.769531 187.5 L 326.433594 187.5 L 326.433594 284.316406 L 53.769531 284.316406 Z M 53.769531 187.5 "
                clip-rule="nonzero" />
        </clipPath>
        <clipPath id="95e199085c">
            <path d="M 37.5 187.5 L 62.996094 187.5 L 62.996094 264.375 L 37.5 264.375 Z M 37.5 187.5 "
                clip-rule="nonzero" />
        </clipPath>
        <clipPath id="f20d1143a4">
            <path d="M 312.003906 187.5 L 337.5 187.5 L 337.5 264.375 L 312.003906 264.375 Z M 312.003906 187.5 "
                clip-rule="nonzero" />
        </clipPath>
        <clipPath id="f07ced3c19">
            <path d="M 21.457031 187.5 L 50.25 187.5 L 50.25 236.902344 L 21.457031 236.902344 Z M 21.457031 187.5 "
                clip-rule="nonzero" />
        </clipPath>
        <clipPath id="61cbadd18e">
            <path
                d="M 323.105469 187.5 L 351.894531 187.5 L 351.894531 240.390625 L 323.105469 240.390625 Z M 323.105469 187.5 "
                clip-rule="nonzero" />
        </clipPath>
        <clipPath id="817ce731fe">
            <path
                d="M 11.089844 151.441406 L 81.835938 151.441406 L 81.835938 212.199219 L 11.089844 212.199219 Z M 11.089844 151.441406 "
                clip-rule="nonzero" />
        </clipPath>
        <clipPath id="b3dcb14833">
            <path
                d="M 342.84375 163.792969 L 367.605469 163.792969 L 367.605469 212.199219 L 342.84375 212.199219 Z M 342.84375 163.792969 "
                clip-rule="nonzero" />
        </clipPath>
        <clipPath id="b8cff8c3a2">
            <path
                d="M 69.453125 59.183594 L 303.648438 59.183594 L 303.648438 212.203125 L 69.453125 212.203125 Z M 69.453125 59.183594 "
                clip-rule="nonzero" />
        </clipPath>
        <clipPath id="44b5742813">
            <path
                d="M 294.351562 137.070312 L 350.25 137.070312 L 350.25 213.945312 L 294.351562 213.945312 Z M 294.351562 137.070312 "
                clip-rule="nonzero" />
        </clipPath>
        <clipPath id="37c89109a3">
            <path
                d="M 330.460938 151.441406 L 355.222656 151.441406 L 355.222656 176.144531 L 330.460938 176.144531 Z M 330.460938 151.441406 "
                clip-rule="nonzero" />
        </clipPath>
        <clipPath id="85aac0ab42">
            <path
                d="M 25.484375 139.09375 L 78.535156 139.09375 L 78.535156 163.792969 L 25.484375 163.792969 Z M 25.484375 139.09375 "
                clip-rule="nonzero" />
        </clipPath>
        <clipPath id="8acf9ddf04">
            <path
                d="M 53.769531 78.492188 L 99.511719 78.492188 L 99.511719 160.394531 L 53.769531 160.394531 Z M 53.769531 78.492188 "
                clip-rule="nonzero" />
        </clipPath>
        <clipPath id="181775ee58">
            <path d="M 14 90 L 93 90 L 93 184 L 14 184 Z M 14 90 " clip-rule="nonzero" />
        </clipPath>
        <clipPath id="8edd26a7f7">
            <path
                d="M 51.710938 90.214844 L 93.078125 110.984375 L 56.265625 184.292969 L 14.898438 163.519531 Z M 51.710938 90.214844 "
                clip-rule="nonzero" />
        </clipPath>
        <clipPath id="a69b5f94ab">
            <path
                d="M 51.710938 90.214844 L 92.585938 110.738281 L 55.832031 183.933594 L 14.957031 163.40625 Z M 51.710938 90.214844 "
                clip-rule="nonzero" />
        </clipPath>
        <clipPath id="56b49bf49d">
            <path d="M 256 72 L 347 72 L 347 174 L 256 174 Z M 256 72 " clip-rule="nonzero" />
        </clipPath>
        <clipPath id="f54f91190b">
            <path
                d="M 256.832031 100.507812 L 305.5625 72.40625 L 347.417969 144.992188 L 298.6875 173.09375 Z M 256.832031 100.507812 "
                clip-rule="nonzero" />
        </clipPath>
        <clipPath id="0c3e7decf9">
            <path
                d="M 256.832031 100.507812 L 305.257812 72.582031 L 347.0625 145.082031 L 298.640625 173.007812 Z M 256.832031 100.507812 "
                clip-rule="nonzero" />
        </clipPath>
        <clipPath id="aff38d92b4">
            <path
                d="M 100.367188 28.804688 L 275.535156 28.804688 L 275.535156 181.824219 L 100.367188 181.824219 Z M 100.367188 28.804688 "
                clip-rule="nonzero" />
        </clipPath>
        <clipPath id="f85340775e">
            <path d="M 255 38 L 304 38 L 304 91 L 255 91 Z M 255 38 " clip-rule="nonzero" />
        </clipPath>
        <clipPath id="e399d1c972">
            <path
                d="M 255.828125 54.304688 L 283.238281 38.5 L 304.019531 74.539062 L 276.609375 90.34375 Z M 255.828125 54.304688 "
                clip-rule="nonzero" />
        </clipPath>
        <clipPath id="7a176c6f32">
            <path
                d="M 255.828125 54.304688 L 282.949219 38.667969 L 303.652344 74.574219 L 276.535156 90.210938 Z M 255.828125 54.304688 "
                clip-rule="nonzero" />
        </clipPath>
        <clipPath id="27630bb8a5">
            <path d="M 78 40 L 127 40 L 127 92 L 78 92 Z M 78 40 " clip-rule="nonzero" />
        </clipPath>
        <clipPath id="0d3beb6301">
            <path
                d="M 78.539062 55.535156 L 105.949219 39.730469 L 126.730469 75.769531 L 99.320312 91.574219 Z M 78.539062 55.535156 "
                clip-rule="nonzero" />
        </clipPath>
        <clipPath id="0a0c14e07f">
            <path
                d="M 78.539062 55.535156 L 105.65625 39.898438 L 126.359375 75.804688 L 99.242188 91.441406 Z M 78.539062 55.535156 "
                clip-rule="nonzero" />
        </clipPath>
    </defs>
    <g clip-path="url(#72b62ed4ab)">
        <path  
            d="M 241.054688 34.332031 C 260.839844 34.332031 284.960938 48.109375 294.789062 64.949219 L 348.671875 156.808594 C 358.5 173.648438 358.5 201.207031 348.671875 218.050781 L 294.960938 309.90625 C 285.132812 326.746094 260.839844 340.523438 241.226562 340.523438 L 133.761719 340.523438 C 113.953125 340.523438 89.832031 326.746094 80.027344 309.90625 L 26.292969 218.050781 C 16.484375 201.207031 16.484375 173.648438 26.292969 156.808594 L 79.851562 64.949219 C 89.660156 48.109375 113.953125 34.332031 133.585938 34.332031 Z M 241.054688 18.492188 L 133.585938 18.492188 C 108.359375 18.492188 78.746094 35.394531 66.15625 56.972656 L 12.59375 148.835938 C -0.0195312 170.472656 -0.0195312 204.378906 12.59375 226.023438 L 66.351562 317.902344 C 78.917969 339.460938 108.53125 356.363281 133.761719 356.363281 L 241.226562 356.363281 C 266.457031 356.363281 296.070312 339.460938 308.636719 317.882812 L 362.371094 226.042969 C 374.984375 204.378906 374.984375 170.476562 362.371094 148.835938 L 308.4375 56.9375 C 295.898438 35.394531 266.285156 18.492188 241.054688 18.492188 Z M 241.054688 18.492188 "
            fill-opacity="1" fill-rule="nonzero" />
    </g>
    <g clip-path="url(#086570fe4c)">
        <path  
            d="M 107.417969 271.964844 L 265.621094 271.964844 L 265.621094 348.722656 L 107.417969 348.722656 Z M 107.417969 271.964844 "
            fill-opacity="1" fill-rule="nonzero" />
    </g>
    <g clip-path="url(#7e2f73b1a1)">
        <path  
            d="M 87.617188 271.964844 L 113.398438 271.964844 L 113.398438 337.589844 L 87.617188 337.589844 Z M 87.617188 271.964844 "
            fill-opacity="1" fill-rule="nonzero" />
    </g>
    <g clip-path="url(#29d61cb18b)">
        <path  
            d="M 69.453125 271.964844 L 94.0625 271.964844 L 94.0625 321.183594 L 69.453125 321.183594 Z M 69.453125 271.964844 "
            fill-opacity="1" fill-rule="nonzero" />
    </g>
    <g clip-path="url(#0baa16954f)">
        <path  
            d="M 53.769531 271.964844 L 78.378906 271.964844 L 78.378906 296.574219 L 53.769531 296.574219 Z M 53.769531 271.964844 "
            fill-opacity="1" fill-rule="nonzero" />
    </g>
    <g clip-path="url(#98b2f93765)">
        <path  
            d="M 262.785156 271.964844 L 288.566406 271.964844 L 288.566406 337.589844 L 262.785156 337.589844 Z M 262.785156 271.964844 "
            fill-opacity="1" fill-rule="nonzero" />
    </g>
    <g clip-path="url(#e21979e839)">
        <path  
            d="M 278.886719 271.964844 L 303.496094 271.964844 L 303.496094 321.183594 L 278.886719 321.183594 Z M 278.886719 271.964844 "
            fill-opacity="1" fill-rule="nonzero" />
    </g>
    <g clip-path="url(#72cbadfbc3)">
        <path  
            d="M 294.351562 271.964844 L 318.960938 271.964844 L 318.960938 296.574219 L 294.351562 296.574219 Z M 294.351562 271.964844 "
            fill-opacity="1" fill-rule="nonzero" />
    </g>
    <g clip-path="url(#e9836af450)">
        <path  
            d="M 53.769531 187.5 L 326.230469 187.5 L 326.230469 284.179688 L 53.769531 284.179688 Z M 53.769531 187.5 "
            fill-opacity="1" fill-rule="nonzero" />
    </g>
    <g clip-path="url(#95e199085c)">
        <path   d="M 37.5 187.5 L 63.28125 187.5 L 63.28125 264.257812 L 37.5 264.257812 Z M 37.5 187.5 "
            fill-opacity="1" fill-rule="nonzero" />
    </g>
    <g clip-path="url(#f20d1143a4)">
        <path  
            d="M 312.003906 187.5 L 337.785156 187.5 L 337.785156 264.257812 L 312.003906 264.257812 Z M 312.003906 187.5 "
            fill-opacity="1" fill-rule="nonzero" />
    </g>
    <g clip-path="url(#f07ced3c19)">
        <path  
            d="M 21.457031 187.5 L 50.167969 187.5 L 50.167969 236.71875 L 21.457031 236.71875 Z M 21.457031 187.5 "
            fill-opacity="1" fill-rule="nonzero" />
    </g>
    <g clip-path="url(#61cbadd18e)">
        <path  
            d="M 323.105469 187.5 L 351.816406 187.5 L 351.816406 240.234375 L 323.105469 240.234375 Z M 323.105469 187.5 "
            fill-opacity="1" fill-rule="nonzero" />
    </g>
    <g clip-path="url(#817ce731fe)">
        <path  
            d="M 11.089844 151.441406 L 81.988281 151.441406 L 81.988281 212.378906 L 11.089844 212.378906 Z M 11.089844 151.441406 "
            fill-opacity="1" fill-rule="nonzero" />
    </g>
    <g clip-path="url(#b3dcb14833)">
        <path  
            d="M 342.84375 163.792969 L 367.453125 163.792969 L 367.453125 212.425781 L 342.84375 212.425781 Z M 342.84375 163.792969 "
            fill-opacity="1" fill-rule="nonzero" />
    </g>
    <g clip-path="url(#b8cff8c3a2)">
        <path  
            d="M 69.453125 59.183594 L 303.828125 59.183594 L 303.828125 212.113281 L 69.453125 212.113281 Z M 69.453125 59.183594 "
            fill-opacity="1" fill-rule="nonzero" />
    </g>
    <g clip-path="url(#44b5742813)">
        <path  
            d="M 294.351562 137.070312 L 350.015625 137.070312 L 350.015625 213.828125 L 294.351562 213.828125 Z M 294.351562 137.070312 "
            fill-opacity="1" fill-rule="nonzero" />
    </g>
    <g clip-path="url(#37c89109a3)">
        <path  
            d="M 330.460938 151.441406 L 355.070312 151.441406 L 355.070312 176.050781 L 330.460938 176.050781 Z M 330.460938 151.441406 "
            fill-opacity="1" fill-rule="nonzero" />
    </g>
    <g clip-path="url(#85aac0ab42)">
        <path  
            d="M 25.484375 139.09375 L 78.804688 139.09375 L 78.804688 163.703125 L 25.484375 163.703125 Z M 25.484375 139.09375 "
            fill-opacity="1" fill-rule="nonzero" />
    </g>
    <g clip-path="url(#8acf9ddf04)">
        <path  
            d="M 53.769531 78.492188 L 99.472656 78.492188 L 99.472656 160.523438 L 53.769531 160.523438 Z M 53.769531 78.492188 "
            fill-opacity="1" fill-rule="nonzero" />
    </g>
    <g clip-path="url(#181775ee58)">
        <g clip-path="url(#8edd26a7f7)">
            <g clip-path="url(#a69b5f94ab)">
                <path  
                    d="M 51.710938 90.214844 L 92.554688 110.722656 L 55.738281 184.03125 L 14.898438 163.519531 Z M 51.710938 90.214844 "
                    fill-opacity="1" fill-rule="nonzero" />
            </g>
        </g>
    </g>
    <g clip-path="url(#56b49bf49d)">
        <g clip-path="url(#f54f91190b)">
            <g clip-path="url(#0c3e7decf9)">
                <path  
                    d="M 256.832031 100.507812 L 305.054688 72.699219 L 346.910156 145.285156 L 298.6875 173.09375 Z M 256.832031 100.507812 "
                    fill-opacity="1" fill-rule="nonzero" />
            </g>
        </g>
    </g>
    <g clip-path="url(#aff38d92b4)">
        <path  
            d="M 100.367188 28.804688 L 275.5625 28.804688 L 275.5625 181.734375 L 100.367188 181.734375 Z M 100.367188 28.804688 "
            fill-opacity="1" fill-rule="nonzero" />
    </g>
    <g clip-path="url(#f85340775e)">
        <g clip-path="url(#e399d1c972)">
            <g clip-path="url(#7a176c6f32)">
                <path  
                    d="M 255.828125 54.304688 L 282.730469 38.792969 L 303.511719 74.832031 L 276.609375 90.34375 Z M 255.828125 54.304688 "
                    fill-opacity="1" fill-rule="nonzero" />
            </g>
        </g>
    </g>
    <g clip-path="url(#27630bb8a5)">
        <g clip-path="url(#0d3beb6301)">
            <g clip-path="url(#0a0c14e07f)">
                <path  
                    d="M 78.539062 55.535156 L 105.441406 40.023438 L 126.222656 76.0625 L 99.320312 91.574219 Z M 78.539062 55.535156 "
                    fill-opacity="1" fill-rule="nonzero" />
            </g>
        </g>
    </g>
</svg>