<?xml version="1.0" standalone="no"?>
<!DOCTYPE svg PUBLIC "-//W3C//DTD SVG 20010904//EN"
 "http://www.w3.org/TR/2001/REC-SVG-20010904/DTD/svg10.dtd">
<svg version="1.0" xmlns="http://www.w3.org/2000/svg"
 width="700.000000pt" height="700.000000pt" viewBox="0 0 700.000000 700.000000"
 preserveAspectRatio="xMidYMid meet">
<metadata>
Created by potrace 1.14, written by Peter Selinger 2001-2017
</metadata>
<g transform="translate(0.000000,700.000000) scale(0.100000,-0.100000)"
fill="#000000" stroke="none">
<path d="M3015 6960 c-1065 -156 -1970 -758 -2521 -1675 -630 -1049 -658
-2386 -73 -3460 177 -324 394 -607 676 -878 l71 -68 279 318 c153 175 282 323
286 329 3 6 -40 58 -98 116 -358 366 -598 812 -704 1310 -12 54 -21 102 -21
108 0 7 101 10 293 10 l292 -1 462 -452 462 -452 1 -995 c0 -547 4 -1000 8
-1007 9 -15 274 -86 417 -113 128 -23 331 -50 381 -50 l34 0 0 1258 -1 1257
-500 489 -500 490 500 500 501 501 0 1243 0 1242 -62 -1 c-35 -1 -117 -9 -183
-19z m-595 -1603 l0 -522 -463 -463 -462 -462 -293 0 c-191 0 -292 4 -292 10
0 6 9 54 21 108 145 683 547 1273 1131 1658 92 61 331 193 351 194 4 0 7 -235
7 -523z"/>
<path d="M3787 5243 c-6 -1834 2 -5243 12 -5243 4 0 62 7 130 15 213 27 453
79 644 141 l47 16 1 2196 1 2197 53 -160 c30 -88 192 -578 360 -1089 169 -510
310 -924 314 -920 4 5 160 397 347 872 186 474 342 862 345 862 10 0 48 -192
64 -325 19 -155 19 -475 0 -630 -44 -360 -155 -690 -341 -1017 -15 -27 -25
-50 -23 -52 18 -15 695 -489 703 -492 19 -7 168 260 255 458 372 840 399 1800
75 2661 -93 248 -262 565 -415 779 -154 216 -447 544 -467 523 -8 -8 -156
-381 -434 -1094 -26 -65 -44 -98 -48 -90 -4 8 -146 435 -315 949 -169 514
-312 940 -318 947 -32 32 -365 134 -582 177 -119 23 -341 56 -384 56 -17 0
-18 -77 -24 -1737z"/>
<path d="M3392 3714 c-91 -45 -138 -130 -130 -234 6 -77 46 -144 112 -185 44
-27 58 -30 126 -30 68 0 82 3 126 30 30 19 60 49 79 79 27 44 30 58 30 126 0
68 -3 82 -30 126 -66 106 -202 145 -313 88z"/>
</g>
</svg>
